<?xml version="1.0" encoding="UTF-8"?>
<svg id="svg2" xmlns="http://www.w3.org/2000/svg" viewBox="0 0 530 530">
  <defs>
     <style>
      .cls-1 {
        fill: #c34353;
      }

      .cls-2 {
        stroke-miterlimit: 4;
        stroke-width: 10px;
      }

      .cls-2, .cls-3, .cls-4, .cls-5, .cls-6, .cls-7 {
        fill: none;
        stroke: #fff; /* Updated stroke color */
      }

      .cls-3 {
        stroke-width: 10px;
      }

      .cls-4 {
        stroke-miterlimit: 4;
        stroke-width: 10px;
      }

      .cls-5 {
        stroke-miterlimit: 4;
        stroke-width: 10px;
      }

      .cls-5, .cls-7 {
        stroke-linecap: round;
      }

      .cls-6 {
        stroke-miterlimit: 4;
        stroke-width: 10px;
      }

      .cls-7 {
        stroke-width: 10px;
      }

    </style>
  </defs>
  <g id="g6265">
    <path id="ellipse6129" class="cls-4" d="m155.14,308.18c-55.95-47.68-83.34-102.97-63.51-138.9,20.32-36.82,84.28-42.49,156.6-18.58m34.51,13.43c9.89,4.43,19.84,9.38,29.75,14.85,11.97,6.84,23.35,13.75,33.28,20.56m29.57,22.69c55.62,47.59,82.8,102.66,63.03,138.48-20.47,37.08-85.2,42.57-158.15,18.07m-32.24-12.59c-10.13-4.51-20.31-9.57-30.46-15.17-11.51-6.35-22.45-13.12-32.75-20.19"/>
    <path id="ellipse6131" class="cls-2" d="m183.79,200.45c10.14-7.21,20.93-14.13,32.29-20.65,11.13-6.23,22.19-11.95,32.26-16.63m34.52-13.76c70.68-23.95,133.23-18.97,153.88,16.99,20.64,35.94-6.56,92.43-62.81,141.38m-29.18,22.82c-9.71,6.84-20.01,13.41-30.82,19.62s-20.87,11.37-31.27,16.17m-35.33,14.15c-70.75,24.02-133.39,19.06-154.06-16.93-20.56-35.8,6.35-91.99,62.16-140.81"/>
    <circle id="circle6133" class="cls-3" cx="265.75" cy="157.89" r="16.14"/>
    <g id="g6139">
      <path id="path6135" class="cls-7" d="m198.35,302.85l9.25-5.05"/>
      <path id="path6137" class="cls-7" d="m226.86,286.71l9.25-5.05"/>
    </g>
    <g id="g6145">
      <path id="path6141" class="cls-5" d="m264.84,339.99l.25-10.53"/>
      <path id="path6143" class="cls-5" d="m265.12,307.23l.25-10.53"/>
    </g>
    <g id="g6151">
      <path id="path6147" class="cls-5" d="m264.84,234.02l.25-10.53"/>
      <path id="path6149" class="cls-5" d="m265.12,201.26l.25-10.53"/>
    </g>
    <g id="g6157">
      <path id="path6153" class="cls-7" d="m293.29,248.25l9.25-5.05"/>
      <path id="path6155" class="cls-7" d="m321.8,232.11l9.25-5.05"/>
    </g>
    <g id="g6163">
      <path id="path6159" class="cls-5" d="m198.34,226.33l9,5.48"/>
      <path id="path6161" class="cls-5" d="m226.58,242.95l9,5.48"/>
    </g>
    <g id="g6169">
      <path id="path6165" class="cls-5" d="m293.83,280.93l9,5.48"/>
      <path id="path6167" class="cls-5" d="m322.06,297.55l9,5.48"/>
    </g>
    <path id="ellipse6171" class="cls-6" d="m168.73,299.61c-1.08-10.64-1.75-21.57-1.96-32.72-.24-12.38.09-24.5.95-36.27m4.58-37.07c13.04-73.39,47.49-125.74,88.91-126.54,41.96-.81,78.8,51.53,94.3,125.89m5.61,36.04c1.17,11.1,1.89,22.52,2.12,34.19.24,12.71-.11,25.15-1.02,37.21m-4.67,37.01c-13.16,72.93-47.5,124.87-88.75,125.66-42.29.81-79.38-52.37-94.67-127.66"/>
    <circle id="circle6173" class="cls-3" cx="170.66" cy="212.28" r="16.14"/>
    <circle id="circle6175" class="cls-3" cx="169.9" cy="318.78" r="16.14"/>
    <circle id="circle6177" class="cls-3" cx="264.61" cy="372.03" r="16.14"/>
    <circle id="circle6179" class="cls-3" cx="359.7" cy="319.16" r="16.14"/>
    <circle id="circle6181" class="cls-3" cx="360.09" cy="211.14" r="16.14"/>
    <circle id="circle6183" class="cls-3" cx="264.99" cy="264.77" r="16.14"/>
  </g>
</svg>